<svg id="visual" viewBox="0 0 900 600" width="900" height="600" xmlns="http://www.w3.org/2000/svg" xmlns:xlink="http://www.w3.org/1999/xlink" version="1.1"><rect x="0" y="0" width="900" height="600" fill="#130021"></rect><defs><linearGradient id="grad1_0" x1="33.3%" y1="0%" x2="100%" y2="100%"><stop offset="20%" stop-color="#401d54" stop-opacity="1"></stop><stop offset="80%" stop-color="#401d54" stop-opacity="1"></stop></linearGradient></defs><defs><linearGradient id="grad1_1" x1="33.3%" y1="0%" x2="100%" y2="100%"><stop offset="20%" stop-color="#401d54" stop-opacity="1"></stop><stop offset="80%" stop-color="#26123a" stop-opacity="1"></stop></linearGradient></defs><defs><linearGradient id="grad1_2" x1="33.3%" y1="0%" x2="100%" y2="100%"><stop offset="20%" stop-color="#130021" stop-opacity="1"></stop><stop offset="80%" stop-color="#26123a" stop-opacity="1"></stop></linearGradient></defs><defs><linearGradient id="grad2_0" x1="0%" y1="0%" x2="66.7%" y2="100%"><stop offset="20%" stop-color="#401d54" stop-opacity="1"></stop><stop offset="80%" stop-color="#401d54" stop-opacity="1"></stop></linearGradient></defs><defs><linearGradient id="grad2_1" x1="0%" y1="0%" x2="66.7%" y2="100%"><stop offset="20%" stop-color="#26123a" stop-opacity="1"></stop><stop offset="80%" stop-color="#401d54" stop-opacity="1"></stop></linearGradient></defs><defs><linearGradient id="grad2_2" x1="0%" y1="0%" x2="66.7%" y2="100%"><stop offset="20%" stop-color="#26123a" stop-opacity="1"></stop><stop offset="80%" stop-color="#130021" stop-opacity="1"></stop></linearGradient></defs><g transform="translate(900, 0)"><path d="M0 324.5C-32.5 315.6 -64.9 306.7 -96.7 297.7C-128.5 288.6 -159.7 279.4 -190.7 262.5C-221.8 245.6 -252.6 221 -259.7 188.7C-266.7 156.3 -250 116.2 -256.8 83.4C-263.6 50.7 -294.1 25.3 -324.5 0L0 0Z" fill="#1b0c2d"></path><path d="M0 216.3C-21.6 210.4 -43.3 204.5 -64.5 198.5C-85.7 192.4 -106.5 186.3 -127.2 175C-147.8 163.8 -168.4 147.4 -173.1 125.8C-177.8 104.2 -166.6 77.5 -171.2 55.6C-175.7 33.8 -196 16.9 -216.3 0L0 0Z" fill="#331847"></path><path d="M0 108.2C-10.8 105.2 -21.6 102.2 -32.2 99.2C-42.8 96.2 -53.2 93.1 -63.6 87.5C-73.9 81.9 -84.2 73.7 -86.6 62.9C-88.9 52.1 -83.3 38.7 -85.6 27.8C-87.9 16.9 -98 8.4 -108.2 0L0 0Z" fill="#401d54"></path></g><g transform="translate(0, 600)"><path d="M0 -324.5C26.7 -299.4 53.3 -274.3 87.1 -268.2C120.9 -262.1 161.9 -274.9 190.7 -262.5C219.6 -250.2 236.5 -212.7 247.6 -179.9C258.6 -147 263.9 -118.8 275.8 -89.6C287.7 -60.4 306.1 -30.2 324.5 0L0 0Z" fill="#1b0c2d"></path><path d="M0 -216.3C17.8 -199.6 35.6 -182.9 58.1 -178.8C80.6 -174.7 107.9 -183.2 127.2 -175C146.4 -166.8 157.7 -141.8 165 -119.9C172.4 -98 176 -79.2 183.9 -59.7C191.8 -40.3 204.1 -20.1 216.3 0L0 0Z" fill="#331847"></path><path d="M0 -108.2C8.9 -99.8 17.8 -91.4 29 -89.4C40.3 -87.4 54 -91.6 63.6 -87.5C73.2 -83.4 78.8 -70.9 82.5 -60C86.2 -49 88 -39.6 91.9 -29.9C95.9 -20.1 102 -10.1 108.2 0L0 0Z" fill="#401d54"></path></g></svg>
